<svg width="968" height="1491" viewBox="0 0 968 1491" fill="none" xmlns="http://www.w3.org/2000/svg">
<rect x="1" width="967" height="1491" fill="white"/>
<mask id="path-2-inside-1" fill="white">
<rect x="228" y="928" width="514" height="514" rx="10"/>
</mask>
<rect x="228" y="928" width="514" height="514" rx="10" stroke="#8DBBC7" stroke-width="40" mask="url(#path-2-inside-1)"/>
<rect x="394" y="928" width="182" height="514" fill="white"/>
<rect x="228" y="1094" width="514" height="182" fill="white"/>
<path d="M308.831 1004.09H456.277C458.898 1004.09 461.022 1006.21 461.022 1008.83V1156.28C461.022 1158.9 458.898 1161.02 456.277 1161.02H308.831C306.21 1161.02 304.086 1158.9 304.086 1156.28V1008.83C304.086 1006.21 306.21 1004.09 308.831 1004.09Z" stroke="#FAC176" stroke-width="20"/>
<rect x="345.486" y="1045.49" width="73.4286" height="73.4286" fill="#FAC176"/>
<path d="M510.051 1004.09H657.498C660.118 1004.09 662.242 1006.21 662.242 1008.83V1156.28C662.242 1158.9 660.118 1161.02 657.498 1161.02H510.051C507.431 1161.02 505.306 1158.9 505.306 1156.28V1008.83C505.306 1006.21 507.431 1004.09 510.051 1004.09Z" stroke="#FAC176" stroke-width="20"/>
<rect x="547.414" y="1045.49" width="73.4286" height="73.4286" fill="#FAC176"/>
<rect x="495.307" y="1195.31" width="69.3866" height="69.3866" fill="#FAC176"/>
<rect x="602.855" y="1195.31" width="69.3866" height="69.3866" fill="#FAC176"/>
<rect x="495.306" y="1302.86" width="69.3866" height="69.3866" fill="#FAC176"/>
<path d="M304.086 1357.5V1210.05C304.086 1207.43 306.21 1205.31 308.831 1205.31H456.277C458.898 1205.31 461.022 1207.43 461.022 1210.05V1357.5C461.022 1360.12 458.898 1362.24 456.277 1362.24H308.831C306.21 1362.24 304.086 1360.12 304.086 1357.5Z" stroke="#FAC176" stroke-width="20"/>
<rect x="345.486" y="1247.42" width="73.4286" height="73.4286" fill="#FAC176"/>
<ellipse cx="111" cy="118.5" rx="80" ry="78.5" fill="#8DBBC7"/>
<path d="M249.68 122.94L229.66 143.24V169H219.3V71H229.66V130.22L287.2 71H299.1L256.68 115.38L302.04 169H289.72L249.68 122.94ZM340.577 94.8C350.19 94.8 357.564 97.2267 362.697 102.08C367.83 106.84 370.397 113.933 370.397 123.36V169H360.877V157.52C358.637 161.347 355.324 164.333 350.937 166.48C346.644 168.627 341.51 169.7 335.537 169.7C327.324 169.7 320.79 167.74 315.937 163.82C311.084 159.9 308.657 154.72 308.657 148.28C308.657 142.027 310.897 136.987 315.377 133.16C319.95 129.333 327.184 127.42 337.077 127.42H360.457V122.94C360.457 116.593 358.684 111.787 355.137 108.52C351.59 105.16 346.41 103.48 339.597 103.48C334.93 103.48 330.45 104.273 326.157 105.86C321.864 107.353 318.177 109.453 315.097 112.16L310.617 104.74C314.35 101.567 318.83 99.14 324.057 97.46C329.284 95.6867 334.79 94.8 340.577 94.8ZM337.077 161.86C342.677 161.86 347.484 160.6 351.497 158.08C355.51 155.467 358.497 151.733 360.457 146.88V134.84H337.357C324.757 134.84 318.457 139.227 318.457 148C318.457 152.293 320.09 155.7 323.357 158.22C326.624 160.647 331.197 161.86 337.077 161.86ZM406.915 109.78C409.248 104.833 412.702 101.1 417.275 98.58C421.942 96.06 427.682 94.8 434.495 94.8V104.46L432.115 104.32C424.368 104.32 418.302 106.7 413.915 111.46C409.528 116.22 407.335 122.893 407.335 131.48V169H397.395V95.36H406.915V109.78ZM494.417 164.52C492.551 166.2 490.217 167.507 487.417 168.44C484.711 169.28 481.864 169.7 478.877 169.7C471.971 169.7 466.651 167.833 462.917 164.1C459.184 160.367 457.317 155.093 457.317 148.28V103.76H444.157V95.36H457.317V79.26H467.257V95.36H489.657V103.76H467.257V147.72C467.257 152.107 468.331 155.467 470.477 157.8C472.717 160.04 475.891 161.16 479.997 161.16C482.051 161.16 484.011 160.833 485.877 160.18C487.837 159.527 489.517 158.593 490.917 157.38L494.417 164.52ZM540.015 169.7C532.921 169.7 526.528 168.113 520.835 164.94C515.141 161.673 510.661 157.193 507.395 151.5C504.128 145.807 502.495 139.367 502.495 132.18C502.495 124.993 504.128 118.553 507.395 112.86C510.661 107.167 515.141 102.733 520.835 99.56C526.528 96.3867 532.921 94.8 540.015 94.8C547.108 94.8 553.501 96.3867 559.195 99.56C564.888 102.733 569.321 107.167 572.495 112.86C575.761 118.553 577.395 124.993 577.395 132.18C577.395 139.367 575.761 145.807 572.495 151.5C569.321 157.193 564.888 161.673 559.195 164.94C553.501 168.113 547.108 169.7 540.015 169.7ZM540.015 160.88C545.241 160.88 549.908 159.713 554.015 157.38C558.215 154.953 561.481 151.547 563.815 147.16C566.148 142.773 567.315 137.78 567.315 132.18C567.315 126.58 566.148 121.587 563.815 117.2C561.481 112.813 558.215 109.453 554.015 107.12C549.908 104.693 545.241 103.48 540.015 103.48C534.788 103.48 530.075 104.693 525.875 107.12C521.768 109.453 518.501 112.813 516.075 117.2C513.741 121.587 512.575 126.58 512.575 132.18C512.575 137.78 513.741 142.773 516.075 147.16C518.501 151.547 521.768 154.953 525.875 157.38C530.075 159.713 534.788 160.88 540.015 160.88ZM628.208 169.7C620.928 169.7 614.395 168.113 608.608 164.94C602.915 161.767 598.435 157.333 595.168 151.64C591.901 145.853 590.268 139.367 590.268 132.18C590.268 124.993 591.901 118.553 595.168 112.86C598.435 107.167 602.915 102.733 608.608 99.56C614.395 96.3867 620.928 94.8 628.208 94.8C634.555 94.8 640.201 96.06 645.148 98.58C650.188 101.007 654.155 104.6 657.048 109.36L649.628 114.4C647.201 110.76 644.121 108.053 640.388 106.28C636.655 104.413 632.595 103.48 628.208 103.48C622.888 103.48 618.081 104.693 613.788 107.12C609.588 109.453 606.275 112.813 603.848 117.2C601.515 121.587 600.348 126.58 600.348 132.18C600.348 137.873 601.515 142.913 603.848 147.3C606.275 151.593 609.588 154.953 613.788 157.38C618.081 159.713 622.888 160.88 628.208 160.88C632.595 160.88 636.655 159.993 640.388 158.22C644.121 156.447 647.201 153.74 649.628 150.1L657.048 155.14C654.155 159.9 650.188 163.54 645.148 166.06C640.108 168.487 634.461 169.7 628.208 169.7ZM713.001 94.8C722.241 94.8 729.568 97.5067 734.981 102.92C740.488 108.24 743.241 116.033 743.241 126.3V169H733.301V127.28C733.301 119.627 731.388 113.793 727.561 109.78C723.734 105.767 718.274 103.76 711.181 103.76C703.248 103.76 696.948 106.14 692.281 110.9C687.708 115.567 685.421 122.053 685.421 130.36V169H675.481V65.12H685.421V108.24C688.128 103.947 691.861 100.633 696.621 98.3C701.381 95.9667 706.841 94.8 713.001 94.8ZM797.527 132.04L780.167 148V169H770.227V65.12H780.167V135.54L824.127 95.36H836.447L804.947 125.46L839.387 169H827.207L797.527 132.04ZM878.702 94.8C888.315 94.8 895.689 97.2267 900.822 102.08C905.955 106.84 908.522 113.933 908.522 123.36V169H899.002V157.52C896.762 161.347 893.449 164.333 889.062 166.48C884.769 168.627 879.635 169.7 873.662 169.7C865.449 169.7 858.915 167.74 854.062 163.82C849.209 159.9 846.782 154.72 846.782 148.28C846.782 142.027 849.022 136.987 853.502 133.16C858.075 129.333 865.309 127.42 875.202 127.42H898.582V122.94C898.582 116.593 896.809 111.787 893.262 108.52C889.715 105.16 884.535 103.48 877.722 103.48C873.055 103.48 868.575 104.273 864.282 105.86C859.989 107.353 856.302 109.453 853.222 112.16L848.742 104.74C852.475 101.567 856.955 99.14 862.182 97.46C867.409 95.6867 872.915 94.8 878.702 94.8ZM875.202 161.86C880.802 161.86 885.609 160.6 889.622 158.08C893.635 155.467 896.622 151.733 898.582 146.88V134.84H875.482C862.882 134.84 856.582 139.227 856.582 148C856.582 152.293 858.215 155.7 861.482 158.22C864.749 160.647 869.322 161.86 875.202 161.86Z" fill="black"/>
<rect y="250" width="968" height="341" fill="#FAC176"/>
<path d="M93.92 419.85C98.6133 421.243 102.207 423.517 104.7 426.67C107.193 429.823 108.44 433.71 108.44 438.33C108.44 445.15 105.837 450.467 100.63 454.28C95.4967 458.093 88.1267 460 78.52 460H40.57V383H76.43C85.3767 383 92.3433 384.723 97.33 388.17C102.317 391.617 104.81 396.53 104.81 402.91C104.81 406.723 103.857 410.097 101.95 413.03C100.043 415.89 97.3667 418.163 93.92 419.85ZM58.28 414.9H74.89C78.7767 414.9 81.71 414.13 83.69 412.59C85.67 410.977 86.66 408.63 86.66 405.55C86.66 402.543 85.6333 400.233 83.58 398.62C81.6 397.007 78.7033 396.2 74.89 396.2H58.28V414.9ZM77.86 446.8C86.22 446.8 90.4 443.5 90.4 436.9C90.4 430.52 86.22 427.33 77.86 427.33H58.28V446.8H77.86ZM144.203 399.94C153.37 399.94 160.41 402.14 165.323 406.54C170.236 410.867 172.693 417.43 172.693 426.23V460H156.633V452.63C153.406 458.13 147.393 460.88 138.593 460.88C134.046 460.88 130.086 460.11 126.713 458.57C123.413 457.03 120.883 454.903 119.123 452.19C117.363 449.477 116.483 446.397 116.483 442.95C116.483 437.45 118.536 433.123 122.643 429.97C126.823 426.817 133.24 425.24 141.893 425.24H155.533C155.533 421.5 154.396 418.64 152.123 416.66C149.85 414.607 146.44 413.58 141.893 413.58C138.74 413.58 135.623 414.093 132.543 415.12C129.536 416.073 126.97 417.393 124.843 419.08L118.683 407.09C121.91 404.817 125.76 403.057 130.233 401.81C134.78 400.563 139.436 399.94 144.203 399.94ZM142.883 449.33C145.816 449.33 148.42 448.67 150.693 447.35C152.966 445.957 154.58 443.94 155.533 441.3V435.25H143.763C136.723 435.25 133.203 437.56 133.203 442.18C133.203 444.38 134.046 446.14 135.733 447.46C137.493 448.707 139.876 449.33 142.883 449.33ZM277.91 400.82V460H187.6V400.82H204.65V445.92H224.34V400.82H241.39V445.92H260.86V400.82H277.91ZM359.739 404.89C365.386 404.89 370.336 406.063 374.589 408.41C378.843 410.683 382.106 413.91 384.379 418.09C386.726 422.27 387.899 427.11 387.899 432.61C387.899 438.257 386.506 443.28 383.719 447.68C381.006 452.007 377.193 455.38 372.279 457.8C367.366 460.147 361.793 461.32 355.559 461.32C345.219 461.32 337.079 458.02 331.139 451.42C325.273 444.747 322.339 434.993 322.339 422.16C322.339 410.28 324.906 400.82 330.039 393.78C335.246 386.667 343.203 382.01 353.909 379.81L382.069 374.2L384.379 388.94L359.519 393.89C352.773 395.21 347.749 397.41 344.449 400.49C341.223 403.57 339.316 407.933 338.729 413.58C341.296 410.793 344.376 408.667 347.969 407.2C351.563 405.66 355.486 404.89 359.739 404.89ZM355.669 448.01C360.069 448.01 363.589 446.58 366.229 443.72C368.943 440.86 370.299 437.23 370.299 432.83C370.299 428.357 368.943 424.8 366.229 422.16C363.589 419.52 360.069 418.2 355.669 418.2C351.196 418.2 347.603 419.52 344.889 422.16C342.176 424.8 340.819 428.357 340.819 432.83C340.819 437.303 342.213 440.97 344.999 443.83C347.786 446.617 351.343 448.01 355.669 448.01ZM399.543 400.82H416.593V436.02L445.413 400.82H461.143V460H444.093V424.8L415.383 460H399.543V400.82ZM515.492 429.2C519.012 430.3 521.725 431.987 523.632 434.26C525.612 436.533 526.602 439.247 526.602 442.4C526.602 446.14 525.318 449.44 522.752 452.3C520.185 455.087 516.665 457.25 512.192 458.79C507.718 460.33 502.658 461.1 497.012 461.1C492.392 461.1 487.845 460.623 483.372 459.67C478.898 458.717 474.755 457.287 470.942 455.38L475.562 443.39C481.795 446.397 488.688 447.9 496.242 447.9C500.275 447.9 503.428 447.313 505.702 446.14C508.048 444.893 509.222 443.17 509.222 440.97C509.222 439.063 508.415 437.633 506.802 436.68C505.188 435.653 502.842 435.14 499.762 435.14H487.662V424.47H498.222C501.228 424.47 503.538 423.993 505.152 423.04C506.765 422.087 507.572 420.693 507.572 418.86C507.572 416.953 506.545 415.487 504.492 414.46C502.512 413.433 499.652 412.92 495.912 412.92C490.192 412.92 483.958 414.277 477.212 416.99L473.032 405.11C481.245 401.517 489.238 399.72 497.012 399.72C502.365 399.72 507.132 400.38 511.312 401.7C515.565 403.02 518.902 404.963 521.322 407.53C523.742 410.023 524.952 412.957 524.952 416.33C524.952 419.117 524.108 421.647 522.422 423.92C520.735 426.12 518.425 427.88 515.492 429.2ZM539.084 400.82H556.134V423.92H581.874V400.82H599.034V460H581.874V437.89H556.134V460H539.084V400.82ZM672.991 430.63C672.991 430.85 672.881 432.39 672.661 435.25H627.891C628.698 438.917 630.604 441.813 633.611 443.94C636.618 446.067 640.358 447.13 644.831 447.13C647.911 447.13 650.624 446.69 652.971 445.81C655.391 444.857 657.628 443.39 659.681 441.41L668.811 451.31C663.238 457.69 655.098 460.88 644.391 460.88C637.718 460.88 631.814 459.597 626.681 457.03C621.548 454.39 617.588 450.76 614.801 446.14C612.014 441.52 610.621 436.277 610.621 430.41C610.621 424.617 611.978 419.41 614.691 414.79C617.478 410.097 621.254 406.467 626.021 403.9C630.861 401.26 636.251 399.94 642.191 399.94C647.984 399.94 653.228 401.187 657.921 403.68C662.614 406.173 666.281 409.767 668.921 414.46C671.634 419.08 672.991 424.47 672.991 430.63ZM642.301 412.92C638.414 412.92 635.151 414.02 632.511 416.22C629.871 418.42 628.258 421.427 627.671 425.24H656.821C656.234 421.5 654.621 418.53 651.981 416.33C649.341 414.057 646.114 412.92 642.301 412.92ZM714.305 460.88C707.998 460.88 702.315 459.597 697.255 457.03C692.268 454.39 688.345 450.76 685.485 446.14C682.698 441.52 681.305 436.277 681.305 430.41C681.305 424.543 682.698 419.3 685.485 414.68C688.345 410.06 692.268 406.467 697.255 403.9C702.315 401.26 707.998 399.94 714.305 399.94C720.538 399.94 725.965 401.26 730.585 403.9C735.278 406.467 738.688 410.17 740.815 415.01L727.505 422.16C724.425 416.733 719.988 414.02 714.195 414.02C709.721 414.02 706.018 415.487 703.085 418.42C700.151 421.353 698.685 425.35 698.685 430.41C698.685 435.47 700.151 439.467 703.085 442.4C706.018 445.333 709.721 446.8 714.195 446.8C720.061 446.8 724.498 444.087 727.505 438.66L740.815 445.92C738.688 450.613 735.278 454.28 730.585 456.92C725.965 459.56 720.538 460.88 714.305 460.88Z" fill="white"/>
<path d="M71.16 643.68C75.44 644.68 77.58 647.26 77.58 651.42C77.58 654.18 76.56 656.3 74.52 657.78C72.48 659.26 69.44 660 65.4 660H51.06V628.44H64.98C68.58 628.44 71.4 629.14 73.44 630.54C75.48 631.94 76.5 633.94 76.5 636.54C76.5 638.26 76.02 639.74 75.06 640.98C74.14 642.18 72.84 643.08 71.16 643.68ZM55.2 642.48H64.68C67.12 642.48 68.98 642.02 70.26 641.1C71.58 640.18 72.24 638.84 72.24 637.08C72.24 635.32 71.58 634 70.26 633.12C68.98 632.24 67.12 631.8 64.68 631.8H55.2V642.48ZM65.22 656.64C67.94 656.64 69.98 656.2 71.34 655.32C72.7 654.44 73.38 653.06 73.38 651.18C73.38 649.3 72.76 647.92 71.52 647.04C70.28 646.12 68.32 645.66 65.64 645.66H55.2V656.64H65.22ZM100.764 660.3C97.6439 660.3 94.8439 659.62 92.3639 658.26C89.9239 656.9 88.0039 655 86.6039 652.56C85.2039 650.08 84.5039 647.3 84.5039 644.22C84.5039 641.14 85.2039 638.38 86.6039 635.94C88.0039 633.5 89.9239 631.6 92.3639 630.24C94.8439 628.88 97.6439 628.2 100.764 628.2C103.484 628.2 105.904 628.74 108.024 629.82C110.184 630.86 111.884 632.4 113.124 634.44L109.944 636.6C108.904 635.04 107.584 633.88 105.984 633.12C104.384 632.32 102.644 631.92 100.764 631.92C98.4839 631.92 96.4239 632.44 94.5839 633.48C92.7839 634.48 91.3639 635.92 90.3239 637.8C89.3239 639.68 88.8239 641.82 88.8239 644.22C88.8239 646.66 89.3239 648.82 90.3239 650.7C91.3639 652.54 92.7839 653.98 94.5839 655.02C96.4239 656.02 98.4839 656.52 100.764 656.52C102.644 656.52 104.384 656.14 105.984 655.38C107.584 654.62 108.904 653.46 109.944 651.9L113.124 654.06C111.884 656.1 110.184 657.66 108.024 658.74C105.864 659.78 103.444 660.3 100.764 660.3ZM148.445 645.54H122.045C122.285 648.82 123.545 651.48 125.825 653.52C128.105 655.52 130.985 656.52 134.465 656.52C136.425 656.52 138.225 656.18 139.865 655.5C141.505 654.78 142.925 653.74 144.125 652.38L146.525 655.14C145.125 656.82 143.365 658.1 141.245 658.98C139.165 659.86 136.865 660.3 134.345 660.3C131.105 660.3 128.225 659.62 125.705 658.26C123.225 656.86 121.285 654.94 119.885 652.5C118.485 650.06 117.785 647.3 117.785 644.22C117.785 641.14 118.445 638.38 119.765 635.94C121.125 633.5 122.965 631.6 125.285 630.24C127.645 628.88 130.285 628.2 133.205 628.2C136.125 628.2 138.745 628.88 141.065 630.24C143.385 631.6 145.205 633.5 146.525 635.94C147.845 638.34 148.505 641.1 148.505 644.22L148.445 645.54ZM133.205 631.86C130.165 631.86 127.605 632.84 125.525 634.8C123.485 636.72 122.325 639.24 122.045 642.36H144.425C144.145 639.24 142.965 636.72 140.885 634.8C138.845 632.84 136.285 631.86 133.205 631.86ZM180.255 632.22H162.195V660H157.935V628.44H180.255V632.22ZM215.258 656.28V667.62H211.238V660H182.978V667.62H178.958V656.28H180.758C182.878 656.16 184.318 654.6 185.078 651.6C185.838 648.6 186.358 644.4 186.638 639L187.058 628.44H210.338V656.28H215.258ZM190.538 639.24C190.338 643.72 189.958 647.42 189.398 650.34C188.838 653.22 187.838 655.2 186.398 656.28H206.078V632.22H190.898L190.538 639.24ZM234.42 628.2C238.54 628.2 241.7 629.24 243.9 631.32C246.1 633.36 247.2 636.4 247.2 640.44V660H243.12V655.08C242.16 656.72 240.74 658 238.86 658.92C237.02 659.84 234.82 660.3 232.26 660.3C228.74 660.3 225.94 659.46 223.86 657.78C221.78 656.1 220.74 653.88 220.74 651.12C220.74 648.44 221.7 646.28 223.62 644.64C225.58 643 228.68 642.18 232.92 642.18H242.94V640.26C242.94 637.54 242.18 635.48 240.66 634.08C239.14 632.64 236.92 631.92 234 631.92C232 631.92 230.08 632.26 228.24 632.94C226.4 633.58 224.82 634.48 223.5 635.64L221.58 632.46C223.18 631.1 225.1 630.06 227.34 629.34C229.58 628.58 231.94 628.2 234.42 628.2ZM232.92 656.94C235.32 656.94 237.38 656.4 239.1 655.32C240.82 654.2 242.1 652.6 242.94 650.52V645.36H233.04C227.64 645.36 224.94 647.24 224.94 651C224.94 652.84 225.64 654.3 227.04 655.38C228.44 656.42 230.4 656.94 232.92 656.94ZM301.064 628.44L285.284 663.78C284.004 666.74 282.524 668.84 280.844 670.08C279.164 671.32 277.144 671.94 274.784 671.94C273.264 671.94 271.844 671.7 270.524 671.22C269.204 670.74 268.064 670.02 267.104 669.06L269.084 665.88C270.684 667.48 272.604 668.28 274.844 668.28C276.284 668.28 277.504 667.88 278.504 667.08C279.544 666.28 280.504 664.92 281.384 663L282.764 659.94L268.664 628.44H273.104L284.984 655.26L296.864 628.44H301.064ZM334.864 645.96H327.664V660H323.404V628.44H327.664V642.3H334.924L346.024 628.44H350.644L338.224 643.74L351.544 660H346.504L334.864 645.96ZM384.067 628.44V660H379.807V632.22H364.687L364.267 640.02C363.947 646.58 363.187 651.62 361.987 655.14C360.787 658.66 358.647 660.42 355.567 660.42C354.727 660.42 353.707 660.26 352.507 659.94L352.807 656.28C353.527 656.44 354.027 656.52 354.307 656.52C355.947 656.52 357.187 655.76 358.027 654.24C358.867 652.72 359.427 650.84 359.707 648.6C359.987 646.36 360.227 643.4 360.427 639.72L360.967 628.44H384.067ZM396.177 628.44H400.437V653.52L421.497 628.44H425.277V660H421.017V634.92L400.017 660H396.177V628.44ZM465.086 645.54H438.686C438.926 648.82 440.186 651.48 442.466 653.52C444.746 655.52 447.626 656.52 451.106 656.52C453.066 656.52 454.866 656.18 456.506 655.5C458.146 654.78 459.566 653.74 460.766 652.38L463.166 655.14C461.766 656.82 460.006 658.1 457.886 658.98C455.806 659.86 453.506 660.3 450.986 660.3C447.746 660.3 444.866 659.62 442.346 658.26C439.866 656.86 437.926 654.94 436.526 652.5C435.126 650.06 434.426 647.3 434.426 644.22C434.426 641.14 435.086 638.38 436.406 635.94C437.766 633.5 439.606 631.6 441.926 630.24C444.286 628.88 446.926 628.2 449.846 628.2C452.766 628.2 455.386 628.88 457.706 630.24C460.026 631.6 461.846 633.5 463.166 635.94C464.486 638.34 465.146 641.1 465.146 644.22L465.086 645.54ZM449.846 631.86C446.806 631.86 444.246 632.84 442.166 634.8C440.126 636.72 438.966 639.24 438.686 642.36H461.066C460.786 639.24 459.606 636.72 457.526 634.8C455.486 632.84 452.926 631.86 449.846 631.86ZM474.576 628.44H478.836V642.42H498.696V628.44H502.956V660H498.696V646.08H478.836V660H474.576V628.44ZM537.264 632.22H525.324V660H521.064V632.22H509.124V628.44H537.264V632.22ZM554.283 628.2C558.403 628.2 561.563 629.24 563.763 631.32C565.963 633.36 567.063 636.4 567.063 640.44V660H562.983V655.08C562.023 656.72 560.603 658 558.723 658.92C556.883 659.84 554.683 660.3 552.123 660.3C548.603 660.3 545.803 659.46 543.723 657.78C541.643 656.1 540.603 653.88 540.603 651.12C540.603 648.44 541.563 646.28 543.483 644.64C545.443 643 548.543 642.18 552.783 642.18H562.803V640.26C562.803 637.54 562.043 635.48 560.523 634.08C559.003 632.64 556.783 631.92 553.863 631.92C551.863 631.92 549.943 632.26 548.103 632.94C546.263 633.58 544.683 634.48 543.363 635.64L541.443 632.46C543.043 631.1 544.963 630.06 547.203 629.34C549.443 628.58 551.803 628.2 554.283 628.2ZM552.783 656.94C555.183 656.94 557.243 656.4 558.963 655.32C560.683 654.2 561.963 652.6 562.803 650.52V645.36H552.903C547.503 645.36 544.803 647.24 544.803 651C544.803 652.84 545.503 654.3 546.903 655.38C548.303 656.42 550.263 656.94 552.783 656.94ZM614.207 643.68C618.487 644.68 620.627 647.26 620.627 651.42C620.627 654.18 619.607 656.3 617.567 657.78C615.527 659.26 612.487 660 608.447 660H594.107V628.44H608.027C611.627 628.44 614.447 629.14 616.487 630.54C618.527 631.94 619.547 633.94 619.547 636.54C619.547 638.26 619.067 639.74 618.107 640.98C617.187 642.18 615.887 643.08 614.207 643.68ZM598.247 642.48H607.727C610.167 642.48 612.027 642.02 613.307 641.1C614.627 640.18 615.287 638.84 615.287 637.08C615.287 635.32 614.627 634 613.307 633.12C612.027 632.24 610.167 631.8 607.727 631.8H598.247V642.48ZM608.267 656.64C610.987 656.64 613.027 656.2 614.387 655.32C615.747 654.44 616.427 653.06 616.427 651.18C616.427 649.3 615.807 647.92 614.567 647.04C613.327 646.12 611.367 645.66 608.687 645.66H598.247V656.64H608.267ZM62.52 718.96H55.32V733H51.06V701.44H55.32V715.3H62.58L73.68 701.44H78.3L65.88 716.74L79.2 733H74.16L62.52 718.96ZM96.1973 701.2C100.317 701.2 103.477 702.24 105.677 704.32C107.877 706.36 108.977 709.4 108.977 713.44V733H104.897V728.08C103.937 729.72 102.517 731 100.637 731.92C98.7973 732.84 96.5973 733.3 94.0373 733.3C90.5173 733.3 87.7173 732.46 85.6373 730.78C83.5573 729.1 82.5173 726.88 82.5173 724.12C82.5173 721.44 83.4773 719.28 85.3973 717.64C87.3573 716 90.4573 715.18 94.6973 715.18H104.717V713.26C104.717 710.54 103.957 708.48 102.437 707.08C100.917 705.64 98.6973 704.92 95.7773 704.92C93.7773 704.92 91.8573 705.26 90.0173 705.94C88.1773 706.58 86.5973 707.48 85.2773 708.64L83.3573 705.46C84.9573 704.1 86.8773 703.06 89.1173 702.34C91.3573 701.58 93.7173 701.2 96.1973 701.2ZM94.6973 729.94C97.0973 729.94 99.1573 729.4 100.877 728.32C102.597 727.2 103.877 725.6 104.717 723.52V718.36H94.8173C89.4173 718.36 86.7173 720.24 86.7173 724C86.7173 725.84 87.4173 727.3 88.8173 728.38C90.2173 729.42 92.1773 729.94 94.6973 729.94ZM136.578 701.2C139.538 701.2 142.218 701.88 144.618 703.24C147.018 704.56 148.898 706.44 150.258 708.88C151.618 711.32 152.298 714.1 152.298 717.22C152.298 720.38 151.618 723.18 150.258 725.62C148.898 728.06 147.018 729.96 144.618 731.32C142.258 732.64 139.578 733.3 136.578 733.3C134.018 733.3 131.698 732.78 129.618 731.74C127.578 730.66 125.898 729.1 124.578 727.06V744.64H120.318V701.44H124.398V707.68C125.678 705.6 127.358 704 129.438 702.88C131.558 701.76 133.938 701.2 136.578 701.2ZM136.278 729.52C138.478 729.52 140.478 729.02 142.278 728.02C144.078 726.98 145.478 725.52 146.478 723.64C147.518 721.76 148.038 719.62 148.038 717.22C148.038 714.82 147.518 712.7 146.478 710.86C145.478 708.98 144.078 707.52 142.278 706.48C140.478 705.44 138.478 704.92 136.278 704.92C134.038 704.92 132.018 705.44 130.218 706.48C128.458 707.52 127.058 708.98 126.018 710.86C125.018 712.7 124.518 714.82 124.518 717.22C124.518 719.62 125.018 721.76 126.018 723.64C127.058 725.52 128.458 726.98 130.218 728.02C132.018 729.02 134.038 729.52 136.278 729.52ZM196.731 701.44V733H192.831V708.04L180.051 729.16H178.131L165.351 707.98V733H161.451V701.44H165.771L179.151 724.18L192.771 701.44H196.731ZM219.713 701.2C223.833 701.2 226.993 702.24 229.193 704.32C231.393 706.36 232.493 709.4 232.493 713.44V733H228.413V728.08C227.453 729.72 226.033 731 224.153 731.92C222.313 732.84 220.113 733.3 217.553 733.3C214.033 733.3 211.233 732.46 209.153 730.78C207.073 729.1 206.033 726.88 206.033 724.12C206.033 721.44 206.993 719.28 208.913 717.64C210.873 716 213.973 715.18 218.213 715.18H228.233V713.26C228.233 710.54 227.473 708.48 225.953 707.08C224.433 705.64 222.213 704.92 219.293 704.92C217.293 704.92 215.373 705.26 213.533 705.94C211.693 706.58 210.113 707.48 208.793 708.64L206.873 705.46C208.473 704.1 210.393 703.06 212.633 702.34C214.873 701.58 217.233 701.2 219.713 701.2ZM218.213 729.94C220.613 729.94 222.673 729.4 224.393 728.32C226.113 727.2 227.393 725.6 228.233 723.52V718.36H218.333C212.933 718.36 210.233 720.24 210.233 724C210.233 725.84 210.933 727.3 212.333 728.38C213.733 729.42 215.693 729.94 218.213 729.94ZM243.833 701.44H248.093V715.42H267.953V701.44H272.213V733H267.953V719.08H248.093V733H243.833V701.44ZM311.922 718.54H285.522C285.762 721.82 287.022 724.48 289.302 726.52C291.582 728.52 294.462 729.52 297.942 729.52C299.902 729.52 301.702 729.18 303.342 728.5C304.982 727.78 306.402 726.74 307.602 725.38L310.002 728.14C308.602 729.82 306.842 731.1 304.722 731.98C302.642 732.86 300.342 733.3 297.822 733.3C294.582 733.3 291.702 732.62 289.182 731.26C286.702 729.86 284.762 727.94 283.362 725.5C281.962 723.06 281.262 720.3 281.262 717.22C281.262 714.14 281.922 711.38 283.242 708.94C284.602 706.5 286.442 704.6 288.762 703.24C291.122 701.88 293.762 701.2 296.682 701.2C299.602 701.2 302.222 701.88 304.542 703.24C306.862 704.6 308.682 706.5 310.002 708.94C311.322 711.34 311.982 714.1 311.982 717.22L311.922 718.54ZM296.682 704.86C293.642 704.86 291.082 705.84 289.002 707.8C286.962 709.72 285.802 712.24 285.522 715.36H307.902C307.622 712.24 306.442 709.72 304.362 707.8C302.322 705.84 299.762 704.86 296.682 704.86Z" fill="black"/>
</svg>
