<svg width="888" height="140" viewBox="0 0 888 140" fill="none" xmlns="http://www.w3.org/2000/svg">
<path d="M228.68 71.9401L208.66 92.2401V118H198.3V20.0001H208.66V79.2201L266.2 20.0001H278.1L235.68 64.3801L281.04 118H268.72L228.68 71.9401Z" fill="black"/>
<path d="M319.577 43.8001C329.19 43.8001 336.564 46.2268 341.697 51.0801C346.83 55.8401 349.397 62.9335 349.397 72.3601V118H339.877V106.52C337.637 110.347 334.324 113.333 329.937 115.48C325.644 117.627 320.51 118.7 314.537 118.7C306.324 118.7 299.79 116.74 294.937 112.82C290.084 108.9 287.657 103.72 287.657 97.2801C287.657 91.0268 289.897 85.9868 294.377 82.1601C298.95 78.3335 306.184 76.4201 316.077 76.4201H339.457V71.9401C339.457 65.5935 337.684 60.7868 334.137 57.5201C330.59 54.1601 325.41 52.4801 318.597 52.4801C313.93 52.4801 309.45 53.2735 305.157 54.8601C300.864 56.3535 297.177 58.4535 294.097 61.1601L289.617 53.7401C293.35 50.5668 297.83 48.1401 303.057 46.4601C308.284 44.6868 313.79 43.8001 319.577 43.8001ZM316.077 110.86C321.677 110.86 326.484 109.6 330.497 107.08C334.51 104.467 337.497 100.733 339.457 95.8801V83.8401H316.357C303.757 83.8401 297.457 88.2268 297.457 97.0001C297.457 101.293 299.09 104.7 302.357 107.22C305.624 109.647 310.197 110.86 316.077 110.86Z" fill="black"/>
<path d="M385.915 58.7801C388.248 53.8335 391.702 50.1001 396.275 47.5801C400.942 45.0601 406.682 43.8001 413.495 43.8001V53.4601L411.115 53.3201C403.368 53.3201 397.302 55.7001 392.915 60.4601C388.528 65.2201 386.335 71.8935 386.335 80.4801V118H376.395V44.3601H385.915V58.7801Z" fill="black"/>
<path d="M473.417 113.52C471.551 115.2 469.217 116.507 466.417 117.44C463.711 118.28 460.864 118.7 457.877 118.7C450.971 118.7 445.651 116.833 441.917 113.1C438.184 109.367 436.317 104.093 436.317 97.2801V52.7601H423.157V44.3601H436.317V28.2601H446.257V44.3601H468.657V52.7601H446.257V96.7201C446.257 101.107 447.331 104.467 449.477 106.8C451.717 109.04 454.891 110.16 458.997 110.16C461.051 110.16 463.011 109.833 464.877 109.18C466.837 108.527 468.517 107.593 469.917 106.38L473.417 113.52Z" fill="black"/>
<path d="M519.015 118.7C511.921 118.7 505.528 117.113 499.835 113.94C494.141 110.673 489.661 106.193 486.395 100.5C483.128 94.8068 481.495 88.3668 481.495 81.1801C481.495 73.9935 483.128 67.5535 486.395 61.8601C489.661 56.1668 494.141 51.7335 499.835 48.5601C505.528 45.3868 511.921 43.8001 519.015 43.8001C526.108 43.8001 532.501 45.3868 538.195 48.5601C543.888 51.7335 548.321 56.1668 551.495 61.8601C554.761 67.5535 556.395 73.9935 556.395 81.1801C556.395 88.3668 554.761 94.8068 551.495 100.5C548.321 106.193 543.888 110.673 538.195 113.94C532.501 117.113 526.108 118.7 519.015 118.7ZM519.015 109.88C524.241 109.88 528.908 108.713 533.015 106.38C537.215 103.953 540.481 100.547 542.815 96.1601C545.148 91.7735 546.315 86.7801 546.315 81.1801C546.315 75.5801 545.148 70.5868 542.815 66.2001C540.481 61.8135 537.215 58.4535 533.015 56.1201C528.908 53.6935 524.241 52.4801 519.015 52.4801C513.788 52.4801 509.075 53.6935 504.875 56.1201C500.768 58.4535 497.501 61.8135 495.075 66.2001C492.741 70.5868 491.575 75.5801 491.575 81.1801C491.575 86.7801 492.741 91.7735 495.075 96.1601C497.501 100.547 500.768 103.953 504.875 106.38C509.075 108.713 513.788 109.88 519.015 109.88Z" fill="black"/>
<path d="M607.208 118.7C599.928 118.7 593.395 117.113 587.608 113.94C581.915 110.767 577.435 106.333 574.168 100.64C570.901 94.8535 569.268 88.3668 569.268 81.1801C569.268 73.9935 570.901 67.5535 574.168 61.8601C577.435 56.1668 581.915 51.7335 587.608 48.5601C593.395 45.3868 599.928 43.8001 607.208 43.8001C613.555 43.8001 619.201 45.0601 624.148 47.5801C629.188 50.0068 633.155 53.6001 636.048 58.3601L628.628 63.4001C626.201 59.7601 623.121 57.0535 619.388 55.2801C615.655 53.4135 611.595 52.4801 607.208 52.4801C601.888 52.4801 597.081 53.6935 592.788 56.1201C588.588 58.4535 585.275 61.8135 582.848 66.2001C580.515 70.5868 579.348 75.5801 579.348 81.1801C579.348 86.8735 580.515 91.9135 582.848 96.3001C585.275 100.593 588.588 103.953 592.788 106.38C597.081 108.713 601.888 109.88 607.208 109.88C611.595 109.88 615.655 108.993 619.388 107.22C623.121 105.447 626.201 102.74 628.628 99.1001L636.048 104.14C633.155 108.9 629.188 112.54 624.148 115.06C619.108 117.487 613.461 118.7 607.208 118.7Z" fill="black"/>
<path d="M692.001 43.8001C701.241 43.8001 708.568 46.5068 713.981 51.9201C719.488 57.2401 722.241 65.0335 722.241 75.3001V118H712.301V76.2801C712.301 68.6268 710.388 62.7935 706.561 58.7801C702.734 54.7668 697.274 52.7601 690.181 52.7601C682.248 52.7601 675.948 55.1401 671.281 59.9001C666.708 64.5668 664.421 71.0535 664.421 79.3601V118H654.481V14.1201H664.421V57.2401C667.128 52.9468 670.861 49.6335 675.621 47.3001C680.381 44.9668 685.841 43.8001 692.001 43.8001Z" fill="black"/>
<path d="M776.527 81.0401L759.167 97.0001V118H749.227V14.1201H759.167V84.5401L803.127 44.3601H815.447L783.947 74.4601L818.387 118H806.207L776.527 81.0401Z" fill="black"/>
<path d="M857.702 43.8001C867.315 43.8001 874.689 46.2268 879.822 51.0801C884.955 55.8401 887.522 62.9335 887.522 72.3601V118H878.002V106.52C875.762 110.347 872.449 113.333 868.062 115.48C863.769 117.627 858.635 118.7 852.662 118.7C844.449 118.7 837.915 116.74 833.062 112.82C828.209 108.9 825.782 103.72 825.782 97.2801C825.782 91.0268 828.022 85.9868 832.502 82.1601C837.075 78.3335 844.309 76.4201 854.202 76.4201H877.582V71.9401C877.582 65.5935 875.809 60.7868 872.262 57.5201C868.715 54.1601 863.535 52.4801 856.722 52.4801C852.055 52.4801 847.575 53.2735 843.282 54.8601C838.989 56.3535 835.302 58.4535 832.222 61.1601L827.742 53.7401C831.475 50.5668 835.955 48.1401 841.182 46.4601C846.409 44.6868 851.915 43.8001 857.702 43.8001ZM854.202 110.86C859.802 110.86 864.609 109.6 868.622 107.08C872.635 104.467 875.622 100.733 877.582 95.8801V83.8401H854.482C841.882 83.8401 835.582 88.2268 835.582 97.0001C835.582 101.293 837.215 104.7 840.482 107.22C843.749 109.647 848.322 110.86 854.202 110.86Z" fill="black"/>
<path d="M0 10C0 4.47715 4.47715 0 10 0H45V13H0V10Z" fill="#8DBBC7"/>
<path d="M95 0H130C135.523 0 140 4.47715 140 10V13H95V0Z" fill="#8DBBC7"/>
<path d="M45 140H10C4.47715 140 0 135.523 0 130V127H45V140Z" fill="#8DBBC7"/>
<rect x="127" y="13" width="13" height="32" fill="#8DBBC7"/>
<rect x="127" y="95" width="13" height="32" fill="#8DBBC7"/>
<rect y="95" width="13" height="32" fill="#8DBBC7"/>
<rect y="13" width="13" height="32" fill="#8DBBC7"/>
<rect x="10" y="65" width="120" height="10" rx="5" fill="#FFB24E"/>
<path d="M140 130C140 135.523 135.523 140 130 140H95V127H140V130Z" fill="#8DBBC7"/>
</svg>
