<svg width="1417" height="1058" viewBox="0 0 1417 1058" fill="none" xmlns="http://www.w3.org/2000/svg">
<rect width="1417" height="1058" fill="white"/>
<rect width="1417" height="852" rx="30" fill="#8DBBC7"/>
<rect x="48" y="29" width="1321" height="794" rx="30" fill="white"/>
<rect x="637" y="852" width="144" height="166" fill="#8DBBC7"/>
<rect x="498" y="1018" width="422" height="40" fill="#8DBBC7"/>
<rect x="644" y="87" width="196" height="20" rx="10" fill="#8DBBC7"/>
<rect x="887" y="87" width="196" height="20" rx="10" fill="#8DBBC7"/>
<rect x="1130" y="87" width="196" height="20" rx="10" fill="#8DBBC7"/>
<rect x="89" y="65" width="100" height="100" rx="10" fill="#8DBBC7"/>
<rect x="98.2856" y="74.2856" width="81.4286" height="81.4286" fill="white"/>
<rect x="121.143" y="65" width="35.7143" height="100" fill="white"/>
<rect x="89" y="97.1431" width="100" height="35.7143" fill="white"/>
<rect x="96.1431" y="111.429" width="85.7143" height="7.14286" rx="3.57143" fill="#FAC176"/>
<rect x="48" y="279" width="101" height="465" fill="black"/>
<rect x="149" y="308" width="572" height="21" fill="#8DBBC7"/>
<rect x="149" y="459" width="572" height="21" fill="#FAC176"/>
<rect x="149" y="599" width="572" height="21" fill="#8DBBC7"/>
<rect x="149" y="341" width="143" height="21" fill="#FAC176"/>
<rect x="149" y="492" width="143" height="22" fill="#8DBBC7"/>
<rect x="149" y="632" width="143" height="21" fill="#8DBBC7"/>
<rect x="149" y="376" width="229" height="20" fill="#8DBBC7"/>
<rect x="149" y="526" width="229" height="21" fill="#8DBBC7"/>
<rect x="149" y="666" width="229" height="21" fill="#FAC176"/>
<path d="M104.496 313.2V414H81.168V331.92H61.008V313.2H104.496Z" fill="white"/>
<path d="M53.592 556L81.816 523.888C91.032 513.136 96.504 506.464 98.232 503.872C101.976 498.304 103.848 493.168 103.848 488.464C103.848 484.144 102.456 480.64 99.672 477.952C96.984 475.264 93.624 473.92 89.592 473.92C84.984 473.92 81.336 475.504 78.648 478.672C75.96 481.744 74.52 485.488 74.328 489.904H55.032C55.416 480.208 58.728 472.432 64.968 466.576C71.208 460.72 79.128 457.792 88.728 457.792C99.288 457.792 107.544 460.816 113.496 466.864C119.544 472.912 122.568 480.064 122.568 488.32C122.568 492.928 121.512 497.536 119.4 502.144C117.288 506.752 115.272 510.256 113.352 512.656C111.432 514.96 108.696 518.032 105.144 521.872L88.584 539.872H123.288V556H53.592Z" fill="white"/>
<path d="M75.912 618.008H58.344C59.208 609.464 62.52 602.792 68.28 597.992C74.04 593.192 81.144 590.792 89.592 590.792C98.808 590.792 106.104 593.192 111.48 597.992C116.952 602.792 119.688 609.224 119.688 617.288C119.688 626.6 115.992 633.32 108.6 637.448C118.392 641.48 123.288 649.112 123.288 660.344C123.288 669.944 120.024 677.48 113.496 682.952C107.064 688.424 98.904 691.16 89.016 691.16C79.608 691.16 71.688 688.472 65.256 683.096C58.824 677.624 55.224 670.376 54.456 661.352H73.176C73.752 665.48 75.432 668.792 78.216 671.288C81 673.784 84.648 675.032 89.16 675.032C94.152 675.032 97.944 673.544 100.536 670.568C103.224 667.496 104.568 663.896 104.568 659.768C104.568 655.736 103.224 652.232 100.536 649.256C97.944 646.28 93.96 644.792 88.584 644.792H86.136V631.256H88.728C93.048 631.256 96.312 630.008 98.52 627.512C100.728 624.92 101.832 621.8 101.832 618.152C101.832 614.312 100.68 611.24 98.376 608.936C96.072 606.632 93 605.48 89.16 605.48C85.608 605.48 82.536 606.584 79.944 608.792C77.448 611 76.104 614.072 75.912 618.008Z" fill="white"/>
<mask id="path-26-inside-1" fill="white">
<path d="M1133.58 277.577C1239.85 304.405 1304.25 412.304 1277.42 518.577C1250.6 624.849 1142.7 689.252 1036.42 662.424C930.151 635.596 865.748 527.696 892.576 421.424C919.405 315.151 1027.3 250.749 1133.58 277.577ZM1060.15 568.433C1114.51 582.157 1169.71 549.212 1183.43 494.849C1197.16 440.486 1164.21 385.291 1109.85 371.567C1055.49 357.844 1000.29 390.788 986.567 445.151C972.843 499.514 1005.79 554.709 1060.15 568.433Z"/>
</mask>
<path d="M1133.58 277.577C1239.85 304.405 1304.25 412.304 1277.42 518.577C1250.6 624.849 1142.7 689.252 1036.42 662.424C930.151 635.596 865.748 527.696 892.576 421.424C919.405 315.151 1027.3 250.749 1133.58 277.577ZM1060.15 568.433C1114.51 582.157 1169.71 549.212 1183.43 494.849C1197.16 440.486 1164.21 385.291 1109.85 371.567C1055.49 357.844 1000.29 390.788 986.567 445.151C972.843 499.514 1005.79 554.709 1060.15 568.433Z" fill="#8DBBC7" stroke="black" stroke-width="2" mask="url(#path-26-inside-1)"/>
<mask id="path-27-inside-2" fill="white">
<path d="M1091.73 271.654C1055.71 270.432 1020.05 279.039 988.556 296.55C957.063 314.061 930.932 339.816 912.966 371.051C895 402.287 885.878 437.825 886.577 473.852C887.276 509.878 897.771 545.035 916.936 575.55C936.1 606.065 963.211 630.787 995.359 647.062C1027.51 663.338 1063.48 670.554 1099.42 667.936C1135.36 665.318 1169.91 652.964 1199.36 632.201C1228.81 611.438 1252.05 583.048 1266.59 550.078L1177.92 510.976C1170.48 527.847 1158.59 542.374 1143.52 552.998C1128.45 563.623 1110.77 569.944 1092.38 571.284C1073.99 572.623 1055.58 568.931 1039.13 560.603C1022.68 552.274 1008.81 539.624 999.002 524.01C989.195 508.395 983.825 490.406 983.467 471.971C983.109 453.536 987.778 435.351 996.971 419.368C1006.16 403.385 1019.53 390.206 1035.65 381.246C1051.76 372.286 1070.01 367.882 1088.44 368.507L1091.73 271.654Z"/>
</mask>
<path d="M1091.73 271.654C1055.71 270.432 1020.05 279.039 988.556 296.55C957.063 314.061 930.932 339.816 912.966 371.051C895 402.287 885.878 437.825 886.577 473.852C887.276 509.878 897.771 545.035 916.936 575.55C936.1 606.065 963.211 630.787 995.359 647.062C1027.51 663.338 1063.48 670.554 1099.42 667.936C1135.36 665.318 1169.91 652.964 1199.36 632.201C1228.81 611.438 1252.05 583.048 1266.59 550.078L1177.92 510.976C1170.48 527.847 1158.59 542.374 1143.52 552.998C1128.45 563.623 1110.77 569.944 1092.38 571.284C1073.99 572.623 1055.58 568.931 1039.13 560.603C1022.68 552.274 1008.81 539.624 999.002 524.01C989.195 508.395 983.825 490.406 983.467 471.971C983.109 453.536 987.778 435.351 996.971 419.368C1006.16 403.385 1019.53 390.206 1035.65 381.246C1051.76 372.286 1070.01 367.882 1088.44 368.507L1091.73 271.654Z" fill="white" stroke="black" stroke-width="2" mask="url(#path-27-inside-2)"/>
<mask id="path-28-inside-3" fill="white">
<path d="M1091.73 271.654C1063.98 270.713 1036.33 275.606 1010.59 286.017C984.848 296.429 961.576 312.126 942.281 332.096C922.985 352.065 908.095 375.861 898.573 401.946C889.05 428.031 885.108 455.824 887.001 483.528C888.894 511.233 896.58 538.231 909.561 562.778C922.543 587.326 940.532 608.876 962.364 626.035C984.197 643.194 1009.39 655.581 1036.31 662.394C1063.23 669.207 1091.28 670.295 1118.64 665.588L1102.2 569.98C1088.21 572.386 1073.87 571.83 1060.11 568.347C1046.35 564.865 1033.47 558.533 1022.31 549.761C1011.15 540.99 1001.96 529.974 995.32 517.426C988.684 504.878 984.756 491.077 983.788 476.915C982.82 462.754 984.835 448.547 989.703 435.213C994.57 421.879 1002.18 409.715 1012.05 399.507C1021.91 389.299 1033.8 381.275 1046.96 375.953C1060.12 370.63 1074.25 368.129 1088.44 368.61L1091.73 271.654Z"/>
</mask>
<path d="M1091.73 271.654C1063.98 270.713 1036.33 275.606 1010.59 286.017C984.848 296.429 961.576 312.126 942.281 332.096C922.985 352.065 908.095 375.861 898.573 401.946C889.05 428.031 885.108 455.824 887.001 483.528C888.894 511.233 896.58 538.231 909.561 562.778C922.543 587.326 940.532 608.876 962.364 626.035C984.197 643.194 1009.39 655.581 1036.31 662.394C1063.23 669.207 1091.28 670.295 1118.64 665.588L1102.2 569.98C1088.21 572.386 1073.87 571.83 1060.11 568.347C1046.35 564.865 1033.47 558.533 1022.31 549.761C1011.15 540.99 1001.96 529.974 995.32 517.426C988.684 504.878 984.756 491.077 983.788 476.915C982.82 462.754 984.835 448.547 989.703 435.213C994.57 421.879 1002.18 409.715 1012.05 399.507C1021.91 389.299 1033.8 381.275 1046.96 375.953C1060.12 370.63 1074.25 368.129 1088.44 368.61L1091.73 271.654Z" fill="black" stroke="black" stroke-width="2" mask="url(#path-28-inside-3)"/>
<mask id="path-29-inside-4" fill="white">
<path d="M1091.73 271.654C1064.42 270.728 1037.22 275.45 1011.82 285.524C986.424 295.599 963.381 310.809 944.135 330.202C924.889 349.595 909.855 372.753 899.973 398.225C890.092 423.698 885.577 450.936 886.711 478.235L983.639 474.21C983.06 460.255 985.368 446.331 990.419 433.311C995.47 420.29 1003.16 408.452 1012.99 398.539C1022.83 388.625 1034.61 380.85 1047.59 375.701C1060.57 370.551 1074.48 368.137 1088.44 368.61L1091.73 271.654Z"/>
</mask>
<path d="M1091.73 271.654C1064.42 270.728 1037.22 275.45 1011.82 285.524C986.424 295.599 963.381 310.809 944.135 330.202C924.889 349.595 909.855 372.753 899.973 398.225C890.092 423.698 885.577 450.936 886.711 478.235L983.639 474.21C983.06 460.255 985.368 446.331 990.419 433.311C995.47 420.29 1003.16 408.452 1012.99 398.539C1022.83 388.625 1034.61 380.85 1047.59 375.701C1060.57 370.551 1074.48 368.137 1088.44 368.61L1091.73 271.654Z" fill="#FAC176" stroke="black" stroke-width="2" mask="url(#path-29-inside-4)"/>
<mask id="path-30-inside-5" fill="white">
<path d="M1091.73 271.654C1056.96 270.475 1022.5 278.454 991.786 294.793L1037.35 380.438C1053.05 372.087 1070.67 368.008 1088.44 368.61L1091.73 271.654Z"/>
</mask>
<path d="M1091.73 271.654C1056.96 270.475 1022.5 278.454 991.786 294.793L1037.35 380.438C1053.05 372.087 1070.67 368.008 1088.44 368.61L1091.73 271.654Z" fill="#DCDEE4" stroke="black" stroke-width="2" mask="url(#path-30-inside-5)"/>
<circle cx="1085" cy="466.974" r="30" fill="black"/>
<circle cx="1085" cy="466.974" r="16" fill="white"/>
</svg>
