<svg width="416" height="416" viewBox="0 0 416 416" fill="none" xmlns="http://www.w3.org/2000/svg">
<rect width="416" height="416" fill="white"/>
<mask id="path-1-inside-1" fill="white">
<rect width="416" height="416" rx="10"/>
</mask>
<rect width="416" height="416" rx="10" stroke="#8DBBC7" stroke-width="40" mask="url(#path-1-inside-1)"/>
<rect x="134" width="148" height="416" fill="white"/>
<rect y="134" width="416" height="148" fill="white"/>
<path d="M63.4858 65.4194C63.4858 64.3516 64.3515 63.486 65.4193 63.486H184.753C185.821 63.486 186.687 64.3516 186.687 65.4194V184.754C186.687 185.821 185.821 186.687 184.753 186.687H65.4193C64.3515 186.687 63.4858 185.821 63.4858 184.754V65.4194Z" stroke="#FFB24E" stroke-width="20"/>
<rect x="95.0859" y="95.0858" width="59.4286" height="59.4286" fill="#FFB24E"/>
<path d="M226.341 65.4193C226.341 64.3515 227.207 63.4858 228.275 63.4858H347.609C348.677 63.4858 349.542 64.3515 349.542 65.4193V184.753C349.542 185.821 348.677 186.687 347.609 186.687H228.275C227.207 186.687 226.341 185.821 226.341 184.753V65.4193Z" stroke="#FFB24E" stroke-width="20"/>
<rect x="258.514" y="95.0858" width="59.4286" height="59.4286" fill="#FFB24E"/>
<rect x="216.342" y="216.342" width="56.1573" height="56.1573" fill="#FFB24E"/>
<rect x="303.385" y="216.342" width="56.1573" height="56.1573" fill="#FFB24E"/>
<rect x="216.341" y="303.386" width="56.1573" height="56.1573" fill="#FFB24E"/>
<path d="M65.4193 349.543C64.3515 349.543 63.4858 348.677 63.4858 347.61L63.4858 228.275C63.4858 227.208 64.3515 226.342 65.4193 226.342H184.753C185.821 226.342 186.687 227.208 186.687 228.275V347.61C186.687 348.677 185.821 349.543 184.753 349.543H65.4193Z" stroke="#FFB24E" stroke-width="20"/>
<rect x="95.0859" y="258.514" width="59.4286" height="59.4286" fill="#FFB24E"/>
</svg>
